<svg version="1.1" xmlns="http://www.w3.org/2000/svg" xmlns:xlink="http://www.w3.org/1999/xlink" width="76.63636" height="59.12538" viewBox="0,0,76.63636,59.12538"><g transform="translate(-213.26694,-153.26694)"><g data-paper-data="{&quot;isPaintingLayer&quot;:true}" fill="none" fill-rule="nonzero" stroke-linejoin="miter" stroke-miterlimit="10" stroke-dasharray="" stroke-dashoffset="0" style="mix-blend-mode: normal"><path d="M216.01694,180c0,-13.24548 10.73758,-23.98306 23.98306,-23.98306c13.24548,0 23.98306,10.73758 23.98306,23.98306c0,13.24548 -10.73758,23.98306 -23.98306,23.98306c-13.24548,0 -23.98306,-10.73758 -23.98306,-23.98306z" stroke="#00c1ff" stroke-width="5.5" stroke-linecap="butt"/><path d="M226.55874,200.30392c0,0 5.83247,-14.89898 6.09369,-21.86478c0.23908,-6.37554 -4.5869,-18.31627 -4.5869,-18.31627" stroke="#00c1ff" stroke-width="5.5" stroke-linecap="round"/><path d="M236.94886,203.35523c0,0 3.49937,-10.27998 5.1984,-18.63737c0.49444,-2.43212 0.8364,-4.70141 0.89529,-6.50713c0.05901,-1.8097 -0.19055,-4.0093 -0.59996,-6.29607c-1.24929,-6.97796 -3.98693,-14.76763 -3.98693,-14.76763" stroke="#00c1ff" stroke-width="5.5" stroke-linecap="round"/><path d="M247.22262,203.3326c0,0 3.49937,-10.27998 5.1984,-18.63737c0.49444,-2.43212 0.8364,-4.7014 0.89529,-6.50713c0.05901,-1.8097 -0.19055,-4.00929 -0.59996,-6.29607c-1.24929,-6.97796 -3.98693,-14.76764 -3.98693,-14.76764" stroke="#00c1ff" stroke-width="5.5" stroke-linecap="round"/><path d="M218.48843,168.85136c0,0 15.38309,4.39975 22.34244,4.00213c6.36964,-0.36392 17.80138,-6.29572 17.80138,-6.29572" stroke="#00c1ff" stroke-width="5.5" stroke-linecap="round"/><path d="M216.43172,179.48316c0,0 10.56445,2.51317 19.04491,3.41556c2.46794,0.26261 4.75937,0.38879 6.56259,0.27693c1.80718,-0.11211 3.97339,-0.56824 6.2113,-1.19172c6.82884,-1.90252 14.32525,-5.36339 14.32525,-5.36339" stroke="#00c1ff" stroke-width="5.5" stroke-linecap="round"/><path d="M217.42423,189.70889c0,0 10.56445,2.51317 19.04491,3.41556c2.46794,0.26261 4.75937,0.38879 6.56259,0.27693c1.80718,-0.11211 3.97339,-0.56824 6.2113,-1.19172c6.82884,-1.90252 14.32525,-5.36339 14.32525,-5.36339" stroke="#00c1ff" stroke-width="5.5" stroke-linecap="round"/><g stroke="#002bff" stroke-width="4"><path d="M266.52232,182.78537c0,-5.90419 4.78629,-10.69049 10.69049,-10.69049c5.90419,0 10.69049,4.78629 10.69049,10.69049c0,5.90419 -4.78629,10.69049 -10.69049,10.69049c-5.90419,0 -10.69049,-4.78629 -10.69049,-10.69049z" stroke-linecap="butt"/><path d="M272.8955,182.78537c0,-2.27084 1.84088,-4.11173 4.11173,-4.11173c2.27084,0 4.11173,1.84088 4.11173,4.11173c0,2.27084 -1.84088,4.11173 -4.11173,4.11173c-2.27084,0 -4.11173,-1.84088 -4.11173,-4.11173z" stroke-linecap="butt"/><path d="M266.95216,188.73884l-15.21339,15.83015l4.72849,4.93407l14.80221,-15.41897" stroke-linecap="round"/></g></g></g></svg>