<svg version="1.1" xmlns="http://www.w3.org/2000/svg" xmlns:xlink="http://www.w3.org/1999/xlink" width="60.99001" height="58.41414" viewBox="0,0,60.99001,58.41414"><g transform="translate(-229.18929,-141.21839)"><g data-paper-data="{&quot;isPaintingLayer&quot;:true}" fill="#cbcbcb" fill-rule="nonzero" stroke="#767676" stroke-linecap="butt" stroke-linejoin="miter" stroke-miterlimit="10" stroke-dasharray="" stroke-dashoffset="0" style="mix-blend-mode: normal"><path d="M258.02461,198.38253v-11.49125h7.73901v11.49125z" stroke-width="2.5"/><path d="M273.02142,195.41788l-6.4601,-9.50347l6.4003,-4.35068l6.4601,9.50347z" stroke-width="2.5"/><path d="M284.91991,184.88963l-10.59183,-4.45669l3.00144,-7.13327l10.59183,4.4567z" stroke-width="2.5"/><path d="M288.70712,169.4478l-11.26507,2.26871l-1.5279,-7.58668l11.26507,-2.26871z" stroke-width="2.5"/><path d="M283.21474,154.71856l-8.55598,7.67099l-5.16618,-5.76219l8.55598,-7.67099z" stroke-width="2.5"/><path d="M270.5272,144.59346l-2.76351,11.15401l-7.51188,-1.86114l2.76351,-11.15401z" stroke-width="2.5"/><path d="M244.1041,171.36566c0,-8.74256 7.08724,-15.82979 15.8298,-15.82979c8.74255,0 15.82979,7.08724 15.82979,15.82979c0,8.74256 -7.08724,15.82979 -15.82979,15.82979c-8.74256,0 -15.8298,-7.08723 -15.8298,-15.82979zM260.27984,177.65936c3.45178,0 6.25,-2.79822 6.25,-6.25c0,-3.45178 -2.79822,-6.25 -6.25,-6.25c-3.45178,0 -6.25,2.79822 -6.25,6.25c0,3.45178 2.79822,6.25 6.25,6.25z" stroke-width="3.5"/><path d="M243.46462,192.08044l6.4601,-9.50347l6.4003,4.35068l-6.4601,9.50347z" data-paper-data="{&quot;index&quot;:null}" stroke-width="2.5"/><path d="M233.79239,179.94217l10.59183,-4.45669l3.00144,7.13327l-10.59182,4.45669z" data-paper-data="{&quot;index&quot;:null}" stroke-width="2.5"/><path d="M232.18938,164.51597l11.26507,2.26871l-1.5279,7.58668l-11.26507,-2.26871z" data-paper-data="{&quot;index&quot;:null}" stroke-width="2.5"/><path d="M239.67843,150.90767l8.55598,7.67099l-5.16618,5.76219l-8.55598,-7.67099z" data-paper-data="{&quot;index&quot;:null}" stroke-width="2.5"/><path d="M253.53909,143.51104l2.76351,11.15401l-7.51188,1.86114l-2.7635,-11.15401z" data-paper-data="{&quot;index&quot;:null}" stroke-width="2.5"/></g></g></svg>